<?xml version="1.0" encoding="UTF-8" standalone="no"?>
<!-- Generator: Adobe Illustrator 22.0.0, SVG Export Plug-In . SVG Version: 6.00 Build 0)  -->

<svg
   version="1.1"
   id="Layer_1"
   x="0px"
   y="0px"
   viewBox="0 0 1000 1000"
   style="enable-background:new 0 0 1000 1000;"
   xml:space="preserve"
   xmlns="http://www.w3.org/2000/svg"
   xmlns:svg="http://www.w3.org/2000/svg"><defs
   id="defs3823" />
<style
   type="text/css"
   id="style3754">
	.st0{fill:#92D7E7;}
	.st1{fill:#B4A995;}
	.st2{fill:none;stroke:#000000;stroke-width:0.25;stroke-miterlimit:10;}
</style>









<g
   id="g3861"><polygon
     class="st0"
     points="999.9,999.7 0,1000 0,0 999.9,0 "
     id="polygon3756" /><path
     class="st1"
     d="M70,0v6l8,7l-3,18l-1,18c0,0,1,13,1,18s0,8-4,12s5,14,5,14v17l8,14l16,32l1.8,0c4.1,5.9,9.8,11.5,14,16.7  c0,0,13.2,17.8,10.7,33c-2.5,15.2-29.3,62.7-29.3,62.7l-34.3,37.2l-3.1,22c2.8,5.7,19.7,46.7,24.2,45c0.7-1.8,1.5-3.6,2.2-5.5  c1.8,0.2,3.1,1.8,3.7,3.5c0.5,1.7,0.4,3.5,0.3,5.3c-2,23.3-6.7,46.3-10.7,69.3c-2.2,12.5-11.2,26.2-25.4,25.1  c-4.7-0.4-9.2-2-13.7-3.6c0.1,8.6,5.5,16.4,11.9,22.1c11,9.7,24.3,17.6,36.3,26.1c5.7,4,9,8.7,13.2,14.1l6.5,4.3  c0,0,36.9,52.4,36.9,52.4c9,10.1,18.8,19.6,28.3,29.3c8.9,9.2,14.7,20,28.9,15.7c5.5-1.7,11.7-3.8,16.7-0.9c1.8,1.1,3.2,2.7,4.7,4.2  c6.5,6.1,16.5,8.3,25,5.6c2.7-0.9,5.3-2.2,8.1-2.6c9.6-1.5,17.2,7.5,22.8,15.5c-2.9,5.5-5.1,11.5-6.5,17.6c2,0.8,4,1.5,6,2.3  c8.7-27.2,39.3-45.5,67.4-40.3c11.4,2.1,22.2,7.6,33.8,8c5.5,0.2,10.9-0.8,16.3-2.2c2.2-0.7,4.4-1.3,6.6-1.9c3.2-1,6.3-2,9.4-2.9  c2.2-0.6,4.5-1.2,6.8-0.9c1.8,0.3,3.5,1.2,5.2,1.8c1.8,0.4,3.5,0.8,5.4,0.9c3.2,0,6.5-0.8,9.7-2c1.7-0.7,4.1-1.8,6.1-2.7  c0.9-0.5,1.8-1,2.7-1.4c0,0.1-0.1,0.1-0.1,0.2c0.5-0.2,0.7-0.4,0.7-0.4c-1-1-1.5-2.3-1.5-3.7c0-1.2,0.4-2.3,0.4-3.5  c0-0.7-0.1-1.5-0.1-2.2c0.2-2.1,2.5-3.8,4.6-3.3c1.7,0.4,3.3,1.9,4.8,1.1c1.6-0.9,1.6-5,2.4-6.7c1.3-2.7,2.5-5.9,4.7-8.1  c1.3-1.3,3.8-3.2,5.7-3.1c2.2,0.1,2.1,2.6,2,4.3c-0.4,5.4-2.6,19.3,5.8,19.7c0.1,0,0.1,0,0.2,0c0.1-0.1,0.2-0.1,0.3-0.1  c4.4-0.9,6.8-4,7.7-8.2c0.7-3.2,0.8-8.3,4.5-9.7c2.3-0.9,5.2,0.2,6.1,2.6c0.2,0.6,0.5,1.1,0.9,1.6c3,3.4,5.5,0.6,6.7-1.8  c2.3-4.5,4.7-10.2,10.5-9.9c0.6,0,1.3,0.2,1.9,0.3c4.4,1.2,7.9,4.4,11.9,6.5c3.6,1.8,8.2,2.6,11.4,0.3c1.6-1.2,2.7-3,4.2-4.3  c4.1-3.4,10.7-1.9,14.2,2c1.4,1.5,2.4,3.4,3.7,4.9c1.3,1.6,3.1,2.9,5.2,3c0.3,0,4-1.1,4.3-1.3l-0.4,0.6c1.5-1.1,3-2.2,4.5-3.3  l2.2-1.7c0.5-0.4,1-0.7,1.5-1c0.8-0.4,1.7-0.5,2.6-0.6l15.6-2c2.8-0.4,4.2-1.5,5.3-4.2c0.5-1.1,0.5-2.2,0.2-3.1  c-0.4-1-1.2-1.7-2.3-2.6c-0.4-0.3-0.8-0.6-1.1-1.1c-0.3-0.5-0.4-1.1-0.4-1.6c-0.1-1.3-0.2-2.7,0.3-4.1c0.4-1.3,1.6-2.7,3.2-2.7  c0.8,0,1.4,0.2,2.1,0.5c0.2,0.1,0.3,0.1,0.5,0.2c1,0.3,1.8,0.3,2.5-0.1c1.7-1,2.3-4.3,2.7-6.5c0.1-0.3,0.1-0.6,0.2-0.9  c1-5.2,1.9-10.8,1.9-16.3c0-2.1-0.1-3.7-0.8-5.2c-0.9-1.8-2.5-3-3.8-3.9c-3.1-2.1-6.6-3.6-10-5.1c-1.1-0.5-2.2-0.9-3.2-1.4  c-2.2-1-4.3-2.2-6.4-3.4l-0.2-0.1c-0.4-0.2-0.8-0.4-1.3-0.7c-1.4-0.7-2.8-1.4-3.7-2.8c-0.5-0.7-0.7-1.5-0.9-2.3l-3.9-12.9  c-0.7-2.4-2.2-4.3-3.5-5.9c-1.4-1.6-2.7-3.3-4-5c-0.6-0.8-1.2-1.6-1.8-2.3c-1.4-1.8-2.8-3.6-4.5-5c-0.6-0.5-1.2-0.9-1.8-1.4  c-1.9-1.4-3.9-2.8-4.6-5c-0.3-1-0.4-2.1,0-3c0.2-0.6,0.6-1.1,1-1.6l0.2-0.2c1.6-2.2,2.7-4.8,3.1-7.3c0.3-2,0.1-4.4-0.2-6.6  c-0.1-1-0.2-2-0.3-2.9c-0.1-1.1-0.1-2.2-0.4-3.2c-0.3-1.4-1-2.8-1.6-4c-1-2-2.2-4.1-3.3-6.1c-0.2-0.3-0.4-0.6-0.6-0.8  c-0.3-0.2-0.7-0.4-1.1-0.5l-0.1,0c-0.8-0.3-2-0.7-2.5-1.8c-0.4-0.7-0.3-1.6-0.2-2.2l0.4-4.9c0.2-1.8,0.3-3.4-0.5-4.8  c-0.8-1.4-1.9-2.7-3-4l-0.3-0.4c-0.6-0.7-1.2-1.4-1.8-2c-1.9-2.1-3.8-4.3-5.4-6.7c-0.1-0.2-0.3-0.5-0.4-0.7c-0.6-1-1.1-1.9-1.9-2.6  c-1.2-1.1-2.7-1.7-4.4-2.3c-1.5-0.5-3-1.1-4.2-2.1c-0.3-0.2-0.6-0.5-0.7-0.8c-0.3-0.7-0.1-1.5,0.5-2.3c0.1-0.2,0.3-0.4,0.5-0.5  c0.3-0.3,0.5-0.6,0.7-0.9c0.3-0.7,0.2-1.6-0.2-2.4c-0.4-0.8-1.2-1.4-1.8-2c-2.3-1.9-4.8-3.7-7-5.1c-0.8-0.5-1.6-1.2-2.4-1.7  c-1.2-0.9-2.5-1.9-3.8-2.6c-3.8-2-7.5-4.8-10.6-7.2c-0.3-0.2-0.7-0.5-0.8-1c-0.2-0.6,0.1-1.1,0.2-1.5l0,0c1.5-3.6,0.5-8.2-2.3-10.9  c-0.1-0.1-0.2-0.1-0.2-0.2c-0.5-0.4-1-0.9-1.2-1.5c-0.5-1.2,0-2.3,0.5-3.4c0.2-0.5,0.4-0.9,0.5-1.4c0-0.2,0.1-0.4,0-0.6  c-0.1-0.2-0.2-0.3-0.4-0.5c-1-0.9-2.2-1.8-3.3-2.6c-0.4-0.3-0.8-0.5-1.2-0.6c-0.5-0.1-1.1-0.1-1.6,0c-0.8,0.1-1.5,0.2-2.3,0.3  c-4.5,0.7-9.6,1.4-13.6-0.9c-1.3-0.7-2.3-1.8-3.2-2.8l-7.4-7.7c-0.2-0.2-0.5-0.6-0.6-1c-0.1-0.5,0-1,0.2-1.4  c1.2-3.4,2.1-6.9,2.6-10.4c0.1-0.6,0.1-1.1-0.1-1.5c-0.2-0.4-0.5-0.7-0.9-0.9c-2.8-2.1-6.3-3.3-9.6-4.5c-2.6-0.9-5.2-1.9-7.6-3.2  c-0.8-0.4-1.5-0.9-2-1.7c-0.5-0.9-0.5-1.9-0.5-2.7l0-8.9c0-0.3,0-0.5-0.1-0.6c-0.1-0.1-0.2-0.2-0.4-0.3c-2.1-1.1-4.3-2.2-6.4-3.3  l0.4-0.8c2.1,1.1,4.3,2.2,6.4,3.3c0.2,0.1,0.5,0.3,0.7,0.5c0.3,0.4,0.3,0.9,0.3,1.2l0,8.9c0,0.8,0,1.6,0.4,2.3c0.3,0.6,1,1,1.6,1.4  c2.3,1.3,5,2.3,7.5,3.2c3.4,1.2,6.9,2.5,9.8,4.7c0.4,0.3,0.9,0.7,1.2,1.3c0.3,0.6,0.2,1.4,0.1,2c-0.5,3.6-1.4,7.2-2.6,10.6  c-0.1,0.3-0.2,0.6-0.2,0.9c0.1,0.2,0.2,0.4,0.4,0.6l7.4,7.7c0.9,1,1.9,2,3,2.6c3.7,2.2,8.7,1.5,13,0.8c0.8-0.1,1.6-0.2,2.4-0.3  c0.6-0.1,1.3-0.2,1.9,0c0.6,0.1,1.1,0.4,1.5,0.8c1.2,0.8,2.4,1.7,3.4,2.6c0.3,0.2,0.6,0.5,0.7,0.9c0.1,0.4,0.1,0.8,0,1.1  c-0.1,0.5-0.3,1-0.6,1.5c-0.4,1-0.8,1.9-0.5,2.7c0.2,0.4,0.6,0.8,1,1.2c0.1,0.1,0.2,0.2,0.2,0.2c3.1,2.9,4.2,8,2.6,11.9l0,0  c-0.1,0.3-0.3,0.6-0.2,0.9c0.1,0.2,0.3,0.4,0.5,0.5c3.1,2.4,6.7,5.1,10.5,7.1c1.4,0.8,2.7,1.7,3.9,2.7c0.8,0.6,1.5,1.2,2.3,1.7  c2.2,1.5,4.8,3.2,7.1,5.2c0.8,0.6,1.5,1.3,2.1,2.3c0.6,1.1,0.7,2.3,0.2,3.2c-0.2,0.4-0.5,0.8-0.8,1.1c-0.1,0.2-0.3,0.3-0.4,0.5  c-0.3,0.4-0.5,0.9-0.4,1.3c0.1,0.2,0.3,0.4,0.5,0.5c1.1,0.9,2.5,1.4,4,1.9c1.7,0.6,3.4,1.2,4.7,2.5c0.9,0.8,1.5,1.8,2.1,2.8  c0.1,0.2,0.3,0.5,0.4,0.7c1.5,2.4,3.4,4.5,5.3,6.6c0.6,0.7,1.2,1.4,1.8,2l0.3,0.4c1.1,1.3,2.3,2.6,3.1,4.1c1,1.7,0.8,3.5,0.6,5.3  l-0.4,5c-0.1,0.6-0.1,1.2,0.1,1.8c0.3,0.7,1.3,1.1,1.9,1.3l0.1,0c0.5,0.1,1,0.3,1.4,0.7c0.4,0.3,0.6,0.7,0.8,1c1.2,2,2.3,4,3.4,6.1  c0.7,1.3,1.4,2.7,1.7,4.3c0.3,1.1,0.3,2.2,0.4,3.3c0.1,0.9,0.2,1.8,0.3,2.8c0.3,2.3,0.5,4.7,0.2,6.9c-0.4,2.6-1.6,5.4-3.3,7.7  l-0.2,0.3c-0.3,0.5-0.7,0.9-0.8,1.4c-0.3,0.7-0.2,1.5,0,2.4c0.7,2,2.4,3.2,4.3,4.6c0.6,0.4,1.3,0.9,1.9,1.4c1.8,1.5,3.3,3.4,4.7,5.2  c0.6,0.8,1.2,1.6,1.8,2.4c1.3,1.7,2.5,3.4,3.9,5c1.4,1.6,2.9,3.6,3.7,6.2l3.9,12.9c0.2,0.7,0.4,1.4,0.8,2.1c0.7,1.2,2,1.8,3.3,2.4  c0.4,0.2,0.9,0.4,1.3,0.7l0.2,0.1c2,1.2,4.1,2.4,6.3,3.3c1.1,0.5,2.2,0.9,3.2,1.4c3.5,1.5,7,3,10.2,5.2c1.4,1,3.2,2.3,4.1,4.3  c0.8,1.7,0.9,3.7,0.9,5.6c-0.1,5.6-1,11.2-1.9,16.5c-0.1,0.3-0.1,0.6-0.2,0.9c-0.4,2.5-1,5.9-3.1,7.2c-0.9,0.5-2,0.6-3.3,0.2  c-0.2-0.1-0.3-0.1-0.5-0.2c-0.6-0.2-1.2-0.4-1.7-0.4c-1.2,0.1-2,1.1-2.4,2.1c-0.4,1.2-0.3,2.5-0.2,3.7c0,0.4,0.1,0.9,0.3,1.2  c0.2,0.3,0.5,0.5,0.8,0.8c1.1,0.8,2.1,1.8,2.6,3c0.4,1.1,0.3,2.5-0.2,3.8c-1.2,3.1-2.9,4.4-6,4.8l-15.6,2c-0.8,0.1-1.6,0.2-2.3,0.5  c-0.5,0.2-0.9,0.6-1.4,0.9l-2.2,1.7c-2.2,1.6-4.3,3.2-6.5,4.8l-0.4,0.6c-3.9,2.5-13.1-5.1-14.4-6.2c-1.7-1.4-3.8-2.4-6-2.1  c-2.6,0.4-4.6,2.7-7,3.7c-5.3,2.2-11.5-1.8-17.1-0.2c-1,0.3-2.1,0.7-3.1,0.3c-0.9-0.4-1.3-1.6-2.1-2.2c-1.3-1.1-3.5-0.6-4.7,0.7  c-1.2,1.3-1.5,3.1-1.8,4.8c-0.4,2.6-1.4,5-2.1,7.6c-0.1,0.4-0.3,0.9-0.7,1.1c-0.3,0.2-0.7,0.2-1,0.2c-3.6-0.1-8.7-1.2-12.2-0.3  c-2.8,0.7-2.2,4.7-2.9,7.4c-0.4,1.4-0.9,2.9-2.1,3.8c-0.8,0.6-1.7,0.9-2.6,1.3c-0.9,0.5-1.7,1.2-1.7,2.2c0,0.7,0.3,1.4,0,2  c-0.3,0.5-0.9,0.7-1.4,0.9c-2.6,1.1-2,4.1-3.6,5.2c-0.2,0.2-0.5,0.2-0.8,0.2c-3.4-0.1-6.8-0.2-10.3-0.3c-1.5,0,0.4-3.2-1.6-4.3  c-1.1-0.6-2.4-0.6-3.7-0.6c-4,0-7.9-0.4-11.8-1.2c-3.1-0.6-2.7-2.5-4.6-4.1c-0.3-0.3-0.8-0.4-1.2-0.4c-1.5,0.1-2.9,0.5-4.4,1  c-1.2,1-2.6,1.9-4.1,2.5c-1.6,0.7-3.3,1.1-5,1.4c-2,0.8-4,1.3-6.2,1.4c-3.7,0.1-7.2-1.4-10.9-2.1c-5.8-1-11.6,0.3-17.3,1.9  c-3.7,1.2-7.4,2.5-11.2,3.3c-0.8,0.2-1.6,0.3-2.4,0.4c-2,0.4-4,0.7-6.1,0.7c-3.7,0.1-7.6-0.4-11,1.1c-0.6,0.3-1.2,0.6-1.8,0.7  c-1.9,0.2-3.3-1.7-4.9-2.8c-0.5-0.4-1-0.7-1.5-0.9c-3.5-0.7-7-1.5-10.5-2.3c-4.2-0.7-8.5-1.3-12.7-1.7c-8.2-0.7-17.1-0.4-23.5,4.7  c-1.5,1.2-2.8,2.6-4.4,3.5c-0.4,0.2-0.8,0.4-1.3,0.6c-0.1,0.1-0.3,0.3-0.4,0.5c0,0.1-0.1,0.1-0.1,0.2c-2.3,2.6-4.8,5.1-7,7.7  c-0.6,0.8-1.2,1.5-1.8,2.3c-0.2,0.3-0.4,0.5-0.6,0.8c-1.2,1.7-2.2,3.5-3.4,5.3c-1.1,1.7-2.5,3.2-3.7,4.8c-1.3,1.8-1.7,3.8-2.5,5.8  c-0.4,1-1.1,1.9-1.7,2.9c-2.7,8.1-3.5,17-4.9,25c-1.9,11.1,3.4,22.8-0.6,33.7c-1.7,4.7-5.9,7.6-8,12.2c-2.3,4.9-3.4,10.4-5.3,15.5  c-2.6,6.9-6.7,13.1-10.2,19.6c-6.2,11.4-10.7,23.7-15,36c-0.3,0.9-0.6,1.8-0.9,2.6c-2.2,6.2-4.3,12.4-6.5,18.6  c-3.2,9.3-6.5,18.7-8,28.5c-0.6,3.7-0.8,7.5-2.1,11c-1.4,3.8-3.8,7.1-6.1,10.5c-9,13.6-14.7,29-20.1,44.2c-2.7,7.7-5.4,15.4-8.4,23  c-2.2,5.5-7.8,12.9-7.8,18.9c0,3-6,25-6,25h821l-0.1-182.2c0,0,0.1,0,0.1,0l0-2.4c-0.4-41.4-0.1-83.6-0.1-125c0-1.6,0-3.3,0-4.9  c0-0.7,0-1.4,0-2.1c0-0.5,0-0.9,0-1.4c0-29.3,0-58.6,0-88c0-2.3,0.1-4.7,0.1-7c0-2.3,0-4.7,0-7c-0.2,0.4-0.6,0.8-0.8,1.2  c-0.4,0.8-0.6,1.9-1.8,1.7c-1.1-0.2-0.8-1.2-0.8-2c-0.1-1.4-1.2-1.5-2.3-1.7c-1.4-0.2-3.2-0.4-3.8-1.5c-2.1-4-6.1-4-9.6-5.1  c-1.4-0.4-2.9-0.9-4-2c-0.8-0.8-1.8-1.3-2.5,0.2c-0.5-0.2-1.1-0.4-1.6-0.6c0,0-0.2-0.1-0.2-0.1c-1.7-0.4-3.2-0.9-4.6-1.9  c0-0.4,0.2-1.1,0-1.3c-4.3-3.8-0.5-8.5-1.6-12.8c-0.7,0.1-1.8,0.2-2.8,0.2c-1.7-0.1-3.8-2.8-2.9-3.9c2.4-2.9,0.3-4.6-1.4-6.3  c-1.1-1.1-2.4-2.1-2.4-3.7c0-3.9-1.2-7.8-0.5-11.8c0.6-3.7,2.2-7.3,0.7-11.2c-1-2.6-2.2-4.3-5.2-2.9c-0.2-3-0.5-6,0.1-9  c0.9,1.1,1.8,1.6,2.6,0c0.9-0.4,0.8-0.8,0-1.2c0-0.7,0.1-1.4,0.1-2.1c0.2-2.7-0.8-2.9-2.7-1.3c-0.5-1.1-1-2.3-0.3-3.5  c0.2,0,0.5-0.1,0.7-0.1l0.1-0.1c-0.3-0.2-0.6-0.5-0.9-0.7c-0.2-0.3-0.4-0.6-0.6-0.9c2.6-1,1.9-4.7,4.7-5.5c0.5-0.1,0.3-0.9,0-1.2  c-1.8-1.8-2.1-4.7-4.4-6c0.6-1.1,1.3-0.7,1.9-0.4c2.2,1,2.6,0.1,3.9-1.9c3-4.3,1.3-8.3,1.1-12.6c-0.2-3.7-0.1-8,2.3-11.5  c0.4-0.5,0.5-1.1,0.1-1.6c-1.8-2.6-0.5-4.6,1.4-6.4c0.3-0.3,0.8-0.7,0.8-1.1c0.4-7,3.5-13.5,3.2-20.6c0-0.8-0.5-2-1.1-2.6  c-3.3-3.8-4.1-8.4-4.4-13.2c0-0.2,0-0.6-0.1-0.7c-4.5-4.2,0.9-5.2,2.5-7.3c0.6-0.8,1-1.4,1.1-2.4c0.1-1.9,0.3-3.6,3-3.8  c2.1-0.1,1.1-1.6,0.6-2.6c-0.7-1.4-1-2.5,0-4.1c2.7-4,2-5.6-2.5-7.1c-0.4-0.1-0.7-0.5-1.6-1.1c3.2-0.8,6.4-0.8,7.3-4.6  c0.3-1.3,1,1.2,2,0.9c0.4-1.4-0.2-2.4-1.1-3.4c-0.7-0.7-1.4-1.5-1.2-2.4c0.7-3.2-1-6.5-0.4-9.4c1-4.5,0.1-8.7-0.5-13  c-1-7,2-13,5.6-18.5c2.3-3.7,3.1-7.7,3.8-11.8c0.3-1.7,0.5-3.4,0.9-5.1c0.3-1.2,1-2.3,2.4-1.9c2.4,0.7,3.1-0.9,3.8-2.6  c0.9-2.4,1.7-4.8,2.6-7.2c0.1-0.2,0.1-0.5,0.2-0.7c2.4-4.8,6.8-7.5,11.1-10.3c0-4.4,0-8.8,0-13.3c0-1.2,0-2.3,0-3.5s0-2.3,0-3.5  c0-4.2,0-8.4,0-12.6c0-2.8,0-5.6,0-8.4c0-4.7,0-9.3,0-14c0-17,0-34,0-51c0-2.3,0-4.7,0-7c0-9-0.2-18.1,0.1-27.1c0-0.1,0-0.1,0-0.2  l0,0V0H70z M954,505.1c-0.2,0.1-0.2,0.2-0.2,0.3C953.8,505.3,953.8,505.2,954,505.1z"
     id="path3758" /><circle
     id="roundabout"
     class="st2"
     cx="755.7"
     cy="568.7"
     r="4.5" /><path
     id="road_006"
     class="st2"
     d="M572.4,687.1l6.5-3.1c0,0,1.3-1.6,4.4,2.2l2.9,2.8l5.9,0.6h3.3c0,0,3.4,1.6,4.9,2.7  c1.5,1,4.9,2.3,4.9,2.3s4-0.3,4.7,0c0.7,0.3,4.2-1.6,4.2-1.6l2.9-3.8l4.9-3.9c0,0,6.6-2.1,7-2.1s4.9-2,4.8-2.3  c-0.1-0.3,2.3-12.1,2.3-12.1s2-4.2,2.3-4.2c0.3,0,5-2.1,5-2.1s4.5-0.3,5.5,0c0.9,0.3,5.8,0.3,7.4,0c1.6-0.3,6.6-1.8,8.8-2.2  c2.2-0.5,7.4-7.7,8.8-8.1c1.4-0.5,9-10.8,9.7-11.5c0.7-0.7,4.5-7.4,4.9-7.4s9.3-6.6,24.6,0.5c11.1,0.2,22.9,1.2,24.5-1.4  c3.4-4.9-0.3-10.2,1.3-17.9c4.7-6.5,6.2-11.5,3.8-19.1l-5.8-7.3c0,0-0.9-6.1-0.6-8.3c8.3-0.2,15.6-8.4,15.6-8.4" /><path
     id="road_005"
     class="st2"
     d="M453.9,574.7l1,2.9l-2.3,18c0,0-2.8,2.6-6.1,4.3s-7.9,1.6-4.3,10.7c3.6,9.2,14.1,39.4,14.1,39.4  s4.2,2,4.8,6.8c0.6,4.8-3.7,5-3.9,7.8c-0.2,2.8-1.8,8,2.1,9c2.2,0.6,4.6-1.2,6.8-0.5c0.7,0.2,1.4,0.7,2,1.1c2.8,2.1,5.1,4,7.2,6.8  c1.8,2.5,4.6,4.6,7.8,4.7c2.4,0,4.6-1.1,7-1c3,0,5.4,1.4,8.1,2.4c2.9,1,6.3,1,9.3,1c0.4,0,0.8,0,1.2,0.2c0.4,0.2,0.6,0.5,0.9,0.8  c1.4,2.1,2,4.7,1.6,7.2c-3.2,1.8-6.3,3.6-9.5,5.4c-0.9,0.5-1.8,1-2.4,1.8c-2.1,2.4-1.4,7-0.6,9.8c0.7,2.3,2.4,4.4,4.7,5  c1.4,0.4,2.9,0.2,4.3,0c2-0.3,4.1-0.6,6.1-0.8c6.5-0.9,11.8,3,15.7,8c2.3,3,6.4,10.7,10.6,10.9c1.5,0.1,3-0.5,4.4-1.1  c4.6-1.9,8.9-4.5,12.7-7.6c1.4-1.2,2.9-2.5,3.5-4.2c2.3-6.5-6.4-11.4-4.9-17.5c1.1-4.3,16.1-11.5,17.7-12.9c1.6-1.4-2.2-7.6-2.9-8.9  c-0.4-0.9-1.1-3.1-2-3.6c-1-0.7-3.9-0.2-5.2-0.2c-1.9,0-3.9,0-5.8,0c-0.5,0-1.1,0-1.6-0.2c-0.5-0.2-1-0.6-1.1-1.1  c-0.7-2.4,6.5-3.1,8-3.5c4.6-1,8.3-3.4,13.1-3.2c1.1-0.9,1.8-1.1,0-2.1c-1.9-0.9-3.8-1.9-5.7-2.8c-0.5-0.2-0.9-0.5-1.5-0.6  c-0.7-0.1-1.4,0-2.1,0.1c-2.3,0.4-2.7,0.7-5,1.1c-2.2,0.4-4.5,2-6.6,1.1c-0.3-0.1-2.5-1.4-2.7-1.6c-0.2-0.2-0.3-0.6-0.3-0.9  c-0.8-3.8-1.2-7.8-4-10.8c-2.4-2.5-5.8-3.7-9.2-4.2c-0.4-1.2,0.1-2.5,0.9-3.5s1.9-1.6,3-2.2c0.8-0.5,1.6-1,2.4-1.4  c0.4-0.2,0.7-0.4,1.1-0.7c1.7-1.6,2.4-5.3,3.3-7.4c0.5-1.9,0.8-4.4,1.9-6.1c1.9-3.2,6.4-5.2,9.8-6.2c0.3-0.1,0.7-0.2,0.9-0.5  c0.3-0.3,0.3-0.7,0.4-1.1c0.7-5,0.9-10.1,0.9-15.1c-0.1-4.7,0.2-9,2.6-13.3c1.1-2,2.5-3.8,3.5-5.8c1-2,1.5-4.4,0.8-6.5  c-0.8-2.2-2.8-3.6-4.4-5.2c-1.6-1.6-2.7-3.5-3.9-5.5l-3-5.5" /><path
     id="road_004"
     class="st2"
     d="M462,357.6l-3.8,0.4l-2-1.1l-0.4-4.1l-1.9-0.4c0,0-0.7,2.1-0.7,2.8c0,0.7,0.9,3.6,0.9,4.2  c0.1,0.5,1.1,3.8,1.1,3.8s-0.5-1.1,0,2.5c0.5,3.6,1.1,4.9,0.9,6.4c-0.2,1.6-0.5,2.1-0.8,3.4s-0.3,1.8-0.2,2.9  c0.2,1.1,0.5,1.5,0.6,2.6c0.2,1.2,0.4,2.4,0.3,3.2c-0.1,0.8,0.5,0.5-0.6,1.4c-1.2,0.9-1.6,0.6-2.6,1.1s-1.4,0.8-2.8,0.5  c-1.4-0.3-1.8-0.1-2.5-0.5c-0.7-0.4-0.2,0.3-1.2-0.9s-1.6-1.3-1.5-1.9c0.1-0.5,0.5-1.2,0.9-2.3c0.3-1.2,0.5-1.2,0.9-3.2  c0.3-2,0.9-2,0.4-3.6c-0.5-1.6,0.4-1.2-1.2-2.9c-1.6-1.8-1.6-0.9-2.2-2.8s-0.6-1.2-0.9-3.2c-0.2-1.9-0.1-1.9-0.6-3.4  c-0.5-1.5-0.9-2.1-1.6-3.1c-0.7-1,0.5-1.3-1.7-1.8c-2.2-0.5-2.1-0.6-4-0.4c-1.9,0.2-1.8,0.1-3.1,0.4s-2.7,0.2-2.9,0  c-0.2-0.2-0.3-0.4-0.5-1.6c-0.2-1.2-0.9-1.6,0-2.4c0.9-0.9,1.8-1.4,2-2.6s0.3-1.6,0.3-2.7c0-1.2-2.2-4.6-2.4-4.9s0.2-3.3-2-2.8  s-2.5-1-2.9,1.2c-0.4,2.2,1.9,5.3,2,6.5c0.2,1.2,0.2,1.1,0.2,2.6c-0.1,1.5-1.1,2.8-1.5,3.2c-0.4,0.4-1,0.3-1.1,2.2  c-0.1,1.9,0.2,1.5,0,2.9c-0.2,1.5,0.7,1.5,0,2.7c-0.8,1.2,0,1.2-0.9,2.5s-0.3,0.7-1.7,2c-1.4,1.3-1.6,1.7-2.1,2.4  c-0.5,0.7-0.2,1-0.7,2.2s-0.9,1.2-1.5,2.8c-0.6,1.6-0.4,2.7-0.4,3.3s0.6,0.4-0.9,1.6s-1.1,1.2-2,1.4s0.1,0.7-1.6,0.2  c-1.6-0.5-0.9-0.2-2.6-1s-1.4,0.9-2.1-1c-0.7-1.9-1.5-2.7-1.5-3.3c0-0.6,0.8-2.4,0.9-3.6c0.1-1.2,0.2-2.8,0.4-3.5  c0.2-0.7,0.5-1.2,1.2-2.5c0.7-1.2,0.6-1.3,1.8-2.6c1.2-1.2,1.5-1,2.5-2c1-1,1.2-0.9,1.2-1.9c0.1-1,0.2-0.9,0.5-2.2  c0.3-1.3,0-1,0.4-2.6c0.4-1.6,0.9-2.2,0.9-3.6c-0.1-1.3-1.2-3.4-1.6-4.7c-0.4-1.2-0.2-1.1-0.6-2.6c-0.4-1.6-0.5-2.7-1.2-3.2  s-2.6-1.2-4-0.5l-1.6,1.6v2.2c0,0,0.6,1.8,0.7,2.3s0.5,2.5,0.4,3.4c-0.1,0.9,0.1,1.6-0.4,2.6s-0.9,1.8-1.6,2c-0.6,0.2-0.5-0.1-2,0.7  c-1.5,0.8-2.3,0.9-2.8,1.2c-0.5,0.4-0.6,1.4-0.6,1.4l-1.3,0.6c0,0-0.7,2.2-0.9,3.6s-0.3,2.1-0.4,2.6c-0.1,0.5,0.2,0.1-0.4,1.4  s0,1.6-1.6,2.9c-1.6,1.2-2.2,1.4-2.7,2.6c-0.5,1.2-0.9,0.4-0.7,2.2c0.2,1.8-0.3-2.2,0.4,3.3c0.7,5.5,1.1,6.2,1.2,6.6  c0.1,0.4,0.6,0.7,0.8,2c0.2,1.3,0,2.6-0.4,3.6c-0.4,0.9,0.7,0.6-1.5,1.2s-0.8,0.4-3,0.8s-3.3,0.2-4,0.7c-0.7,0.5-1.4,0.3-1.9,1.6  c-0.5,1.2-0.6,3-0.6,3.5c0,0.5,1.3,5.3,1.3,5.3s0.9-0.4,1.2,0.9c0.3,1.2,0.5,1.9,0.5,3.1c-0.1,1.2,0.2,1.9-1.1,2.6s-1.9,0.9-3.3,1.4  s-1.4,0.7-3.2,0.9c-1.8,0.2-1.6,1.2-3.3,0c-1.6-1.2-1.2,0.8-1.6-1.2c-0.4-2-0.5-1.1-0.4-3.2c0.2-2.1-0.1-2.5,0.9-4.3  c1-1.8,1.2-1.6,2-3.3c0.9-1.8,1.2-2.3,1.9-3.7c0.7-1.4,1.3-1.1,1.6-3.4c0.2-2.3,0-2.2,0.3-4.2s0-1.6,0.3-4.2c0.3-2.6-0.1-2.7,0.6-5  c0.7-2.2,1-2.1,1.6-4.3c0.6-2.2,0.4-4.2,0.1-5s-0.4-0.9-0.5-1.3c-0.1-0.5,2.2-4.7,2.5-5.3c0.2-0.5,0.5-0.8,0.3-3  c-0.2-2.2-0.7-1.8-0.4-3.7s0.7-3.3,0.6-5c-0.1-1.8-0.4-3.3-0.2-4.6c0.2-1.2,2-1.3,0.2-2.4c-1.9-1.1-2-1.3-4.6-2.5s-2.7-0.3-3.9-1.4  c-1.2-1.1-1.6-1.6-3.9-1.9s-2.7-0.3-2.7-0.3s-2.4,1.5-2.5,1.9c-0.1,0.4-0.8,0.5,0,1.5c0.8,1,0.2,1,1.6,1.7c1.3,0.7,3.4,1,3.4,1  s2.1-0.1,3.3,0.2c1.2,0.3,1.9,0,2.4,0.5c0.5,0.5,0.7,0.1,1.2,1.2c0.5,1.2,0.9,1.6,1.2,3.2c0.4,1.6,0.8,2.9,0.8,3.8s0,1.3-0.3,2.1  s-0.6,0.9-1.1,1.6c-0.5,0.7-0.3,0-1.6,1.9c-1.2,1.9-1.8,2.3-2.2,3.6c-0.5,1.3-0.4,1.2-0.8,2.9s-0.8,1.6-1.3,4.2s-0.3,3.1-0.6,5  c-0.3,1.9-0.7,3.3-0.9,4.7c-0.2,1.4,0.2,0.8-0.3,2.6s0.3-0.6-1.6,3.3c-1.9,4-1.6,3.4-1.9,5c-0.4,1.6-0.3,0.9-0.4,1.9  c-0.1,1.1-0.1,1.5,0.1,2.3c0.2,0.9-0.9,4.2-1.4,4.4c-0.5,0.2-1.3,0.4-2.4,0.7s-0.9,0.4-2.9,0.9c-2.1,0.5-3.5,1.3-4.6,0.6  c-1.1-0.7-1.2-1.1-1.3-1.8c-0.2-0.7-1.8-0.9,0-1.9c1.8-1,1.8-1.2,3.4-1.6c1.6-0.4,1.4-0.3,2.7-0.7c1.3-0.4,2.1,0.1,2.9-1.1  s1-0.7,1.1-2.7c0.1-2,0.1-1.9-0.5-3.5s-0.3-1.6-1.8-3.5c-1.5-1.9-2.5-1.9-2.5-2.9s-0.5-1.9,0.2-3.1c0.6-1.2,0.2-1.3,1.4-2.2  c1.2-0.9,4.3-1.5,4.9-2.4c0.5-0.9,0.3-0.8,0.8-1.6c0.5-0.8,1.6,0.3,1.1-1.9c-0.5-2.2-1-2.9-1.2-3.3c-0.2-0.5-0.6-1.2-0.9-1.6  s-0.9-0.3-0.5-1.6c0.5-1.2,1.4-3.1,1.9-4s0.9-1.6,1.4-2.6s1.2-1.9,1.3-2.8c0.1-0.9-0.2-2.2-0.6-2.5s-2.2-1.5-3.6-0.6  s-2.9,2.3-3.3,3.3s-0.7,1.9-0.8,3.1c-0.1,1.2-0.3,1.8-0.5,3.2c-0.2,1.4-0.2,1.8,0,3.4c0.2,1.6,0.2,1.6,0.2,3s0.5,0.7-0.1,1.9  s-0.2,1.2-1,2s-1.9,1.4-2.4,1.9s-1.1,0.5-1.7,1.6c-0.6,1.2-0.8,1.2-0.6,2.8c0.2,1.6,0.3,2.1,0.1,2.7c-0.2,0.6-1.6,4.5-2.8,4.2  c-1.2-0.3,0.1,0.2-1.6-0.4s-1.9-0.4-1.9-1.9c0-1.5-0.7-1,0.2-3.4c0.9-2.4,0.9-2.9,1.7-4.3s1.2-3,1.6-4c0.4-0.9,1.9-3.5,1.9-3.5  s0.1-1.6-1.7-2.6c-1.8-0.9-1.2-1.4-2.9-1.2c-1.7,0.2-1.5,0.1-3.2,0.2c-1.7,0.2-1.6,0.1-2.3,0.1" /><path
     id="road_003"
     class="st2"
     d="M524.5,675.2v-10.7c0,0-1-2.6-2.1-3.9c-1-1.2-6.5-4.8-6.5-4.8s-7.9-1.1-10.6-1.7  c-2.6-0.6-11.5-1.7-12.1-3.3s-5-6.4-5-6.4s-14.4,2.5-15.8,2.6c-1.4,0.2-1.2,0.8-4.5-0.2c-3.3-0.9-9.5-1.7-12.3-1.7s-14.3,0-15.8,0  s-2.6,0-2.6,0l-4,4.5l-1.7,1.1c0,0-2.8-2-2.9-2.5c-0.2-0.5,0.2-2.9,0-3.9c-0.2-0.9-3.1-3.4-5.6-4.3c-2.5-0.9-9.3-1.2-9.3-1.2  s-4.3,1.2-4.8,2c-0.5,0.8-2.2,4-4.2,4.7c-2,0.6-12.9,2-12.9,2l-6.1,0.5c0,0-5.4-0.6-7.4-1.6c-2-0.9-5.4-1.9-10.1-2.3  s-7.9-0.5-10.3-0.5c-2.3,0-7.1,0.6-8.2,0.6c-1.1,0-5.9-3.6-5.9-3.6s-5.1-1.9-7-1.9c-1.9,0-8.1,0-8.1,0s-1.7,1.2-1.7,1.7  c0,0.5,1.4,3.4,2,4.2c0.6,0.8,1.9,2.2,2.2,2.6s2.9,1.9,2.9,1.9l10.6-0.5l2.8,0.8l1.6,3.4c0,0-0.9,2.2-1.7,2.5  c-0.8,0.3-3.3,1.1-4.8,0.8c-1.6-0.3-7.1-0.9-7.1-0.9s-2.6,1.6-3.3,1.7c-0.6,0.2-0.8,5.2-0.8,5.2" /><path
     id="road_002"
     class="st2"
     d="M431.6,293.2h4.2c0,0,12.3-0.1,12.5,0s3.3,2.8,3.5,3s0.8,1.3,1.1,2.8c0.3,1.5,0.3,1.6,0.8,2.9  s0.3,1.5,1.5,2.7c1.1,1.2,1.5,1.9,3,2.1c1.5,0.2,1.7,0.3,2.9,0.6c1.3,0.4,5.7,0.4,5.7,0.4s3.2,0.2,4-0.2c0.8-0.4,0.4-0.6,1.8-0.5  s1.8-0.1,2.6-0.2s6.5-4.5,7.7-5.2c1.2-0.7,1.6-0.9,2.7-1.9s1.3-1.1,2.3-2.7c1-1.5,0.6-1.6,1.1-3.5s2.1-7.3,2.1-7.3s2.2-7.7,2.4-8.4  c0.2-0.6,2.1-5.6,2.9-6.7c0.8-1,2.8-4.2,3.1-4.5c0.3-0.3,7.6-8.2,7.6-8.2s2.9-1.3,3.9-1.2c1,0.1,3,0.4,5.3,0.5  c2.3,0.1,8.4,1,10.1,1.2c1.7,0.1,5.4,0.6,5.4,0.6s9.7,6.2,10.6,6.6s4.3,1.6,5.5,2c1.2,0.4,3.4,1.6,5.2,1.5c1.8-0.1,5.1-0.1,6.1-0.4  c1-0.3,15.2-0.4,16.2-0.8c1-0.3,3.6-1.2,3.8-1.6s0.7-1.5,2.1-2.7s3.2-3.3,3.6-4c0.4-0.7,7.2-6.6,7.4-6.6c0.3-0.1,3.5-0.9,4.2-1.2  c0.6-0.2,2.9-0.3,3.8-0.5c1-0.1,2.8-0.3,3-0.4c0.1-0.1,6.7-0.8,8.7-1.8c2-1,11-1.9,11.9-2.2c0.9-0.3,5.6-0.6,8.7-1.2  c3.1-0.5,5.9,0.1,7.9,0c2-0.1,10.7,0,10.7,0s9.9,2.9,10.5,2.9s7.9-1.5,13.1-3.1c5.2-1.6,4.6-2.1,7.1-2c2.6,0.1,2.9,0.6,6.8,2.5  l5.1,6.1l0.6,10.9c0,0,2.7,2.6,2.9,2.9c0.2,0.3,3.4,2.9,3.4,2.9s6.3,5.5,6.3,6.5c0,1,0,6.8,0,6.8v4c0,0,4,3.1,5.3,3.4  c1.2,0.3,1.6,1.6,3.1,1.2s8.7-4.7,8.7-4.7l3.1-1.6l11.2-0.3c0,0,0.9-1.2,2.5,2.2c1.6,3.4,4,5.3,4.7,7.1s1.5,1.2,4.6,3.4  c3.1,2.2,8.1,3.1,8.1,3.1l6.1,1.9c0,0,4.6-0.6,5-0.7c0.4-0.1,11.9-1.7,11.9-1.7s5-1.9,5.5-1.9c0.5-0.1,3.2-3,3.9-3.4  s3.9-5.1,4.3-5.2s5.8-3.4,6.1-3.5c0.3-0.1,6.9-3.3,6.9-3.3l4.3-2.2c0,0,3-0.9,3.5-0.8c0.5,0.1,2.4,0.8,2.4,0.8s0.9,0.9,0.9,2.1  s0,1.9-0.5,3c-0.5,1.1-0.8,0.5-0.8,2.9s0.1,1.6-0.5,4.3c-0.5,2.7,0.2,3.1,0.1,5.4c-0.1,2.3-0.2,1.5-0.8,3.4s-0.3,2.1-0.9,3.7  s-2.2,0.7-0.1,2.4c2,1.7,1.9,1.1,2.7,2.2s1.8,1.7,2.6,2.3c0.8,0.6,2.7,1.2,3.5,1.1l5.5-2.2c0,0,2.4-1.7,3.4-2.4s3.5-2.7,4.2-3.5  s3.5-5.8,3.9-6.2s3.6-5.3,4-5.4c0.4-0.2,2.4-2.8,2.4-2.8s6.3-1.9,8.3-2.8c2-0.9,7.3-2.5,8.2-2.5c0.9,0,5.7,0.2,9.3,2  c3.6,1.9,8.8,2.8,10.7,5c1.9,2.2,6.1,2.8,9.5,7.3c3.4,4.5,16.8,11.8,16.9,12.3c0.2,0.5,1.4,0.8,3.9,4c2.5,3.3,3.3,2.3,4.2,5.9v10.9  c0,0,6.9,8.1,7.1,8.7c0.2,0.5-1,16-1,16s-1,7.4-0.9,7.5s3.7,8.1,3.7,8.1s1.2,0.5,3.3,5.3c2.2,4.8,5.5,10,5.6,10.8  c0.1,0.8-2.2,11.5-2.3,11.6c-0.1,0.2-0.9,1.5-0.8,3.2s0.3,0.1-0.2,4.8c-0.5,4.7,0,9.1-0.2,10.2c-0.2,1.1-0.5,6.4-0.2,7.9  c0.3,1.5,0.9,4.4,1.5,6.5c0.6,2,1.1,2.4,1,6.9c-0.1,4.5-0.2,10.9-0.3,11.2c-0.1,0.3-3,4.8-3.1,5.2c-0.1,0.4,1.1,3.7,0.8,6  c-0.3,2.3,0.6,7.2,0.9,7.9c0.2,0.8,1.6,7.3,1.6,7.3s1.6,6.1,2,9.3c0.5,3.2,1.3,5.1,1.5,6.7s-1.9,9.4-1.7,10.7  c0.2,1.3,0.9,3.8,0.5,6.6c-0.4,2.8,0.3,3-0.9,5.7c-1.2,2.7,0.1,2-2.9,4.4s-5.7,5.2-6.2,5.8c-0.5,0.6-2.4,5.6-2.4,5.6  s0.9,2.8,1.6,4.3c0.7,1.5,0.9,1.5,2.3,4.8s2.7,5.2,3.8,8.2c1.1,3,2.2,4.5,2.7,5.8c0.5,1.3,0.6,1,0.9,3.8c0.3,2.9,1.8,9.2,2.3,10.5  c0.5,1.3,1.7,2.9,3.5,4.6c1.7,1.7,1.1,2.4,3.9,3.8s4.4,1.8,5.3,2.7c0.9,0.9,0.6-0.5,1.6,2.1c0.9,2.6,5.9,10.5,7.6,10.9  c1.7,0.4,2.6,0.8,4,1.5c1.3,0.7,1.4,0.2,3.7,1.6c2.3,1.5,5,2.7,6.5,4s3.2,1.5,3.8,2.4c0.6,0.9,1.5,0.1,1.3,2.4s0.1,2.7-0.3,4.8  c-0.3,2,0.8,1.3-1.2,3.4c-2,2.1-3.1,2.6-3.1,2.6s-4.7,0.9-7.2,1.8c-2.6,0.9-4.1,1.3-5.5,1.6c-1.3,0.3-4.1,3.9-6.4,5.4  s-0.8,2.4-5.2,3c-4.4,0.6-6.1,0.8-7.9,1.7c-1.9,0.9-2.9,0.8-4.9,2.7c-2,1.9-2.2,0.3-2.8,3.7c-0.6,3.4,0.2,1.3-1.5,4.5  c-1.7,3.2-1.2,1.7-2.1,5.2c-0.9,3.4-0.3,3.6-1.5,5.5c-1.1,1.9-1,2.9-2,4.2s-2.5,4.1-3,4.2c-0.5,0.1-5.4,1.9-6.7,1.9  c-1.3,0.1-6,0.8-7.6,0.9c-1.6,0.1-6.9-0.2-7.6-0.7c-0.6-0.5-5.2-5.4-5.4-6.6s-1.4-3.3-1.2-6.3c0.2-3-1.3-6.9-2-7.7  s-8.6-5.9-15.2-1.6c-10.8,13.2-6.9,10.2-16.5,10c-6.8-0.2-4.1-3.5-4.8-7.7c-2.2-11.9-3.4-18-3.4-18l-1.5-5.1c0,0-3.9-4.2-4.2-4.2  c-0.3-0.1-10.5-3.7-11.8-4.1c-1.3-0.3-5.4-1.9-5.4-1.9s-7.2-1.9-7.4-1.8c-0.2,0.1-6.5,1.5-7.8,2c-1.3,0.5-3.3,1.2-7.7,2.3  c-4.4,1-8.6,2.9-8.6,2.9s-1.7,3.3-3,5.6c-1.3,2.3-7.6,10.8-8,11.8s-1.2,2-3,3.2s-3.3,2.6-4.5,3.8c-1.2,1.2-2.2,2.7-2.2,3.2  c0.1,0.5-0.5,6.6-0.3,7s3,3,3.7,3.4c0.8,0.5,4.8,2.1,6.3,3c1.5,0.9,5.4,4,5.4,4s0.7,8,0.9,9.3c0.2,1.2,3,3.3-0.6,4.1  s-7.2,3.8-10.2,5.3c-3,1.5-4.7,3.1-7,3.6c-2.3,0.5-4.8-1-6.4-0.8c-1.6,0.2-26.3,0.3-29.1,0.9c-2.8,0.6-14.6-7.5-14.6-7.5  s-8.5,2.5-10.2,3.3s-8.4,4.2-8.4,4.2s-4.2,5.1-5.1,6.9c-0.9,1.9-5.1,2.9-6.8,3.4s-10.7,0.5-12.1,2.3c-1.4,1.7-8.7,6.7-9,8.4  c-0.3,1.7-2.3,9-2.3,9l-4.5,5c0,0-5.6-0.5-6.8,0s-16.9,2.2-16.9,2.2l-12.6,5.3l-9.2,5.6l-7.1,1.1l-7.8-1.6l-65.9-38.3  c0,0-16.2-8.9-16.7-9.8l-2.7-4l-3.5-5.8l-2.8-2.6c0,0-6.3-3.8-6.5-3.8s-8.4-4.7-8.4-4.7h-2.9l-19.5,6.5c0,0-14.3,15.8-21.5,23  s-12,4.6-12,4.6l-11.8-2c0,0-3-0.3-11.6,6.7c-8.6,7-14,3.5-14,3.5s-3.8-2.6-8.2-4.5c-4.4-1.9-7.1-11.1-7.1-11.1s-4.2-3.5-8.6-5.9  c-4.4-2.4-4.4-3.9-13.8-1.5s-8.6,0.8-15.9-2.1c-7.3-2.9-6.9-8.6-6.9-8.6s-0.4-3.6-2.5-5.6c-2.1-2-5.2-2.2-5.2-2.2" /><path
     id="road_001"
     class="st2"
     d="M245.8,628.8c0,0-18.3-1.4-20.8-11.7c0-7.2,0.8-14.2,1-17.5c0.1-2,5.3-6.3,6.5-7.8  c3.2-3.8,6.2-8.2,9.8-11.6c4.2-4,10.1-5.5,14.9-9.1c7.3-5.4,13.4-12.3,21.3-16.8c3.9-2.2,8.3-3.8,11.4-7.1c1.9-1.9,3.2-4.4,5.4-5.9  c4.2-2.9,10.4-1.6,14.6-4.5c3.1-2.2,4.3-6,6.3-9.2c5.6-9.2,14.9-9.7,24.5-10.2c2.7-7.8-0.3-16.2-2-24.3c-1.8-8-1.8-17.8,4.7-22.9  c7.1-5.6,17.4-2.2,25.9,0.7c8.6,2.9,19.9,4.3,25-3.2c1.4-2.1,2.1-4.7,3.5-6.8c2.6-4,7.2-5.9,11.5-7.9c17.8-8.1,33.9-19.8,47.3-34  c4.5-4.8,8.8-10,11.2-16.2c5.4-13.9-0.4-29.4-5.3-43.5c-1.2-3.4,0.1-4-1.8-9.9c-1-3-2.2-2.7-5-4.1c-7.5-3.9-7.2,0.9-11.2-15.4  c-7.3-7.6-7.1-9.1-7.1-15.5c0.1-10.4-3.2-8.9-4-11.1c-2-5.5-1.5-8.1-1.9-10.3c-19.4,2.1-23.8-19.4-37.2-16.1c-3.2,0.6-6,2.5-8.9,3.9  c-8,3.8-18,3.1-25.4-1.7c-9.8-6.4-17.8-20-29.2-17.1c-2.6,0.7-5,2.3-7.7,2.8c-9.3,1.9-19.3-9-27.1-3.8c-5.4,3.6-5.7,13-12,14.5  c-5.7-3.7-3.9-14.3-10.1-17c-4.4-1.9-9.4,2.2-10.5,6.8c-1,4.7,0.7,9.4,2.4,13.9c1.6,4.5,3.2,9.4,1.8,13.9c-0.8,2.8-3.3,5.4-6.1,5.1  c-4.9-0.5-5.3-7.3-6.2-12.2c-1.4-7.8-7.8-14-15.2-16.9c-7.4-2.9-15.6-2.9-23.4-1.8c-2.4,0.3-4.8,0.7-7.2,0.3  c-7-1.4-10.2-9.3-15.4-14.2c-9-8.4-25.8-5.2-31.2,5.9c-1,2-1.7,4.3-3.3,5.9c-2.5,2.5-6.4,2.6-9.9,3.1c-18.2,2.5-32.8,20.7-31.2,39.1  c0.5,5.8,2.4,11.8,0.1,17.2c-3.2,7.7-13.2,10.1-18.3,16.6c-10,12.8,3.1,31.8-1,47.5c-0.8,3.1-2.3,6-2.6,9.2  c-0.4,4.8,1.9,9.4,2.3,14.3c0.6,7.5-3.5,14.4-7,21c-8.8,17.1-13.1,39.8-0.3,54.1c2.8,3.2,6.5,5.9,8,9.9c2.2,5.7-0.5,12.6,2,18.2  c3.1,6.8,11.9,8.3,19.1,10.4c17,5.1,30,18.4,43.4,30.1c8.6,7.5,18.2,14.5,29.1,18.3c9.6,3.3,20,1.1,29.5,4.3  c0.9,0.3,19.6,0.7,19.6,0.7" /><g
     id="highway">
	<path
   class="st2"
   d="M779,425.3l-20.6,3.8l-8.6,2l-6.4,2.1l-5.2,2.1l-5.7,2.6l-6.3,3.7l-21.3,12.6l-49.3,28.5l-11.5,6.9l-5.6,3.5   l-6.3,5l-10.5,9.8l-5.6,4.5l-5,3.4l-4.9,2.7l-6.2,3.1l-5.7,2.4l-20,8.1l-44.2,17.6L519,554l-7.9,2.1l-9.3,1.4l-9,0.3l-14.3-0.2   l-27.4-0.8l-13.1,0.2l-7,0.5l-8.4,1.4l-23.3,4.2l-57.7,11.6l-7.9,1.9l-5.1,1.9l-5.1,3.3l-5.1,5.6l-2.8,5.6l-2.8,7l-2.8,6.5   l-2.8,3.7l-14.5,9.8c0,0-4.3,3.4-2.6,10.6c1.7,7.3-0.1,5.5,3.5,8.7s18.6,19.5,18.6,19.5s2,4.1,14.5,3.7c12.5-0.4,14.5-0.7,14.5-0.7   "
   id="path3767" />
	<path
   class="st2"
   d="M279.2,627.8l-12.7-1.3c1.2,0,3-1.2,4.2-1.6c3-1.2,6-2.4,9-3.6c5.4-2.2,10.9-4.7,16.4-6.7   c2.9-1.1,5.8-1.8,8.3-3.6c5.3-3.8,7.3-10.3,9.5-16.1c2.4-6.2,5.6-11.8,11.4-15.6c5.1-3.3,11.2-4.6,17.2-5.8   c18.8-3.8,37.5-7.6,56.3-11.3c15.4-3.1,30.8-5.9,46.6-6.2c15.6-0.3,31.2,0.7,46.8,1c20.6,0.3,39.4-9,58.1-16.4   c7.8-3.1,15.6-6.2,23.4-9.3c16.6-6.8,33.6-12.6,47.4-24.5c7.4-6.3,13.9-13,22.3-18.1l11.5-6.9l49.3-28.5l21.3-12.6l6.3-3.7l5.7-2.6   l5.2-2.1l6.4-2.1l8.6-2l20.6-3.8"
   id="path3769" />
	<circle
   class="st2"
   cx="282.6"
   cy="625.2"
   r="4.3"
   id="circle3771" />
	<line
   class="st2"
   x1="285.4"
   y1="631.5"
   x2="282"
   y2="629.5"
   id="line3773" />
	<polyline
   class="st2"
   points="291.3,636.8 285.3,631.4 284.9,628.8  "
   id="polyline3775" />
	<path
   class="st2"
   d="M266.5,626.6l-8.8,2.3c0,0-7.2,1.1-11.9,0"
   id="path3777" />
	<path
   class="st2"
   d="M346.1,573.9c0,0,4.4,0,11,0.8c5.4,0.7,7.8,3.7,8.5,4.9c0.2,0.3,0.2,0.4,0.2,0.4s0.9-6.1,6-8.3s9.7-5,9.7-5"
   id="path3779" />
	<path
   class="st2"
   d="M346.1,572.9c0,0,4.7-2.3,9.8-4.7c5-2.4,6.3-8.6,6.3-8.6s1.9,4.5,8.8,5.3c6.9,0.8,10.9,0.8,10.9,0.8"
   id="path3781" />
	<polyline
   class="st2"
   points="355.6,568.3 363.5,566.7 372,565  "
   id="polyline3783" />
	<polyline
   class="st2"
   points="356.7,574.7 364.6,572.9 371.8,571.7  "
   id="polyline3785" />
	<path
   class="st2"
   d="M369,595.6c0,0-1.4-4.9-1.9-8.4s-5.7-31.9-5.7-31.9s-0.9-6.5-7.1-11.8c-6.2-5.3-6.8-7.3-10.8-18.3l-2.7-7.9"
   id="path3787" />
	<path
   class="st2"
   d="M553.5,553.6"
   id="path3789" />
	<path
   class="st2"
   d="M571.9,533.1l-6.9,4.3c0,0-7.7,4.7-9.7,7.1c-1.9,2.4-1.8,9.1-1.8,9.1c-0.5,0-2.1-0.5-4.9-2.4   c-2.9-1.9-7.2-2-11.5-1.8l-7.5,0.5"
   id="path3791" />
	<path
   class="st2"
   d="M529.1,549.2c0,0,9.5-7.6,11.1-10.5c1.6-2.9,1-9.8,1-9.8s6.3,5.8,9.1,6.2c2.8,0.3,22.2-3.2,22.2-3.2"
   id="path3793" />
	<path
   class="st2"
   d="M529.6,549"
   id="path3795" />
	<path
   class="st2"
   d="M559.3,565.5c-0.2-1.1-20.2-40.7-20.2-40.7l-2.6-5.6c0,0-1.5-2.4,1.3-9.1"
   id="path3797" />
	<path
   class="st2"
   d="M649,486.6l15-4.4c0,0,4.3-1.2,7-0.7c2.7,0.5,10.6,5.4,10.6,5.4l3.5,1.2l0.2-11.2c0,0-0.7-3.8,3.5-8.6   c4.2-4.8,8.5-9.8,8.5-9.8"
   id="path3799" />
	<path
   class="st2"
   d="M649,485.4c0,0-1.7,1.5,6.4-6.1c8.1-7.7,8.8-11.8,8.8-11.8l1.2-11.4c0.2,0,10.3,4.2,13.5,4.5   c3.3,0.3,18.3-3.2,18.3-3.2"
   id="path3801" />
	<path
   class="st2"
   d="M674.7,471.7c-2.3,1.2-4.3,3.4-4.3,5c0,2,1.6,3.6,3.6,3.6s3.5-1.8,3.3-3.7c-0.1-2.2-1.9-4.2-2.3-4.8"
   id="path3803" />
	<path
   class="st2"
   d="M676.8,470.5c1.6-0.8,4.3-1.1,5.7-0.3c1.7,1,2.3,3.2,1.3,4.9c-1,1.7-3.2,2.3-4.9,1.3c-0.7-0.4-1.8-1.2-2.1-1.8   "
   id="path3805" />
	<path
   class="st2"
   d="M673.6,471.1c-2.3,1.3-5,1.9-6.4,1c-1.6-1.1-2.1-3.3-1-4.9c1.1-1.6,3.4-1.9,4.9-0.8c1.8,1.3,2.5,3.9,2.8,4.5"
   id="path3807" />
	<path
   class="st2"
   d="M675.7,469.8c1.6-0.9,3.4-2.7,3.5-4.3c0.1-2-1.4-3.6-3.4-3.7s-3.6,1.4-3.7,3.4c0,0.8,0,2.1,0.4,2.7"
   id="path3809" />
	<path
   class="st2"
   d="M640.6,518.7c-0.1-0.2-2.3-4.4-2.3-4.4s-2.4-2.2-4.5-4.3s0.8-3.7-4.1-9c-4.8-5.3-3.3-4.2-4.4-5.2   c-1.1-1-6.9,0.1-9-0.8c-1.5-2-1.2-4.2-1.8-5.8"
   id="path3811" />
	<path
   class="st2"
   d="M693.9,501.6c-11.3-18.1-22.6-36.2-33.8-54.3"
   id="path3813" />
	<path
   class="st2"
   d="M453.9,574.7c-4.9-4.2-13.3-7.9-14.2-11.3s0.1-11.9-2.2-16.3c-3.4-3.4-7.1-3.5-12.9-6.6   c-5.4-4.8-1.1-8.3-1.3-8.9"
   id="path3815" />
	<path
   class="st2"
   d="M517,570.9l-3.7-7.3c0,0-1.8-10.3-3.2-14.6s-0.7-3.5-14.2-9.6"
   id="path3817" />
</g></g>
</svg>
